<mxfile host="app.diagrams.net" agent="Mozilla/5.0 (X11; Linux x86_64) AppleWebKit/537.36 (KHTML, like Gecko) Chrome/108.0.0.0 Safari/537.36" version="24.7.16">
  <diagram name="Страница — 1" id="361Gj0xfxAqqJb2A0n--">
    <mxGraphModel dx="907" dy="538" grid="1" gridSize="10" guides="1" tooltips="1" connect="1" arrows="1" fold="1" page="1" pageScale="1" pageWidth="1169" pageHeight="827" math="0" shadow="0">
      <root>
        <mxCell id="0" />
        <mxCell id="1" parent="0" />
        <mxCell id="EeHq86OZld0XPDPcD5km-1" value="Пассажир" style="whiteSpace=wrap;html=1;align=center;fillColor=#d5e8d4;strokeColor=#82b366;" vertex="1" parent="1">
          <mxGeometry x="980" y="320" width="130" height="80" as="geometry" />
        </mxCell>
        <mxCell id="EeHq86OZld0XPDPcD5km-83" style="edgeStyle=orthogonalEdgeStyle;rounded=0;orthogonalLoop=1;jettySize=auto;html=1;" edge="1" parent="1" source="EeHq86OZld0XPDPcD5km-2" target="EeHq86OZld0XPDPcD5km-3">
          <mxGeometry relative="1" as="geometry" />
        </mxCell>
        <mxCell id="EeHq86OZld0XPDPcD5km-84" style="edgeStyle=orthogonalEdgeStyle;rounded=0;orthogonalLoop=1;jettySize=auto;html=1;" edge="1" parent="1" source="EeHq86OZld0XPDPcD5km-2" target="EeHq86OZld0XPDPcD5km-63">
          <mxGeometry relative="1" as="geometry" />
        </mxCell>
        <mxCell id="EeHq86OZld0XPDPcD5km-2" value="Рейс" style="whiteSpace=wrap;html=1;align=center;fillColor=#d5e8d4;strokeColor=#82b366;" vertex="1" parent="1">
          <mxGeometry x="360" y="320" width="140" height="80" as="geometry" />
        </mxCell>
        <mxCell id="EeHq86OZld0XPDPcD5km-3" value="Самолет" style="whiteSpace=wrap;html=1;align=center;fillColor=#d5e8d4;strokeColor=#82b366;" vertex="1" parent="1">
          <mxGeometry x="360" y="120" width="140" height="80" as="geometry" />
        </mxCell>
        <mxCell id="EeHq86OZld0XPDPcD5km-4" value="Бронь" style="whiteSpace=wrap;html=1;align=center;fillColor=#d5e8d4;strokeColor=#82b366;" vertex="1" parent="1">
          <mxGeometry x="660" y="320" width="140" height="80" as="geometry" />
        </mxCell>
        <mxCell id="EeHq86OZld0XPDPcD5km-61" value="Регистрация" style="whiteSpace=wrap;html=1;align=center;fillColor=#d5e8d4;strokeColor=#82b366;" vertex="1" parent="1">
          <mxGeometry x="660" y="520" width="140" height="80" as="geometry" />
        </mxCell>
        <mxCell id="EeHq86OZld0XPDPcD5km-92" style="edgeStyle=orthogonalEdgeStyle;rounded=0;orthogonalLoop=1;jettySize=auto;html=1;" edge="1" parent="1" source="EeHq86OZld0XPDPcD5km-62" target="EeHq86OZld0XPDPcD5km-61">
          <mxGeometry relative="1" as="geometry" />
        </mxCell>
        <mxCell id="EeHq86OZld0XPDPcD5km-62" value="Сотрудники" style="whiteSpace=wrap;html=1;align=center;fillColor=#d5e8d4;strokeColor=#82b366;" vertex="1" parent="1">
          <mxGeometry x="60" y="520" width="140" height="80" as="geometry" />
        </mxCell>
        <mxCell id="EeHq86OZld0XPDPcD5km-91" style="edgeStyle=orthogonalEdgeStyle;rounded=0;orthogonalLoop=1;jettySize=auto;html=1;" edge="1" parent="1" source="EeHq86OZld0XPDPcD5km-63" target="EeHq86OZld0XPDPcD5km-62">
          <mxGeometry relative="1" as="geometry" />
        </mxCell>
        <mxCell id="EeHq86OZld0XPDPcD5km-63" value="Экипаж" style="whiteSpace=wrap;html=1;align=center;fillColor=#d5e8d4;strokeColor=#82b366;" vertex="1" parent="1">
          <mxGeometry x="60" y="320" width="140" height="80" as="geometry" />
        </mxCell>
        <mxCell id="EeHq86OZld0XPDPcD5km-67" value="принадлежит" style="shape=rhombus;double=1;perimeter=rhombusPerimeter;whiteSpace=wrap;html=1;align=center;fillColor=#ffe6cc;strokeColor=#d79b00;" vertex="1" parent="1">
          <mxGeometry x="370" y="230" width="120" height="70" as="geometry" />
        </mxCell>
        <mxCell id="EeHq86OZld0XPDPcD5km-69" value="обслуживает" style="shape=rhombus;double=1;perimeter=rhombusPerimeter;whiteSpace=wrap;html=1;align=center;fillColor=#ffe6cc;strokeColor=#d79b00;" vertex="1" parent="1">
          <mxGeometry x="220" y="330" width="120" height="60" as="geometry" />
        </mxCell>
        <mxCell id="EeHq86OZld0XPDPcD5km-78" style="edgeStyle=orthogonalEdgeStyle;rounded=0;orthogonalLoop=1;jettySize=auto;html=1;exitX=0;exitY=0.5;exitDx=0;exitDy=0;entryX=0.994;entryY=0.519;entryDx=0;entryDy=0;entryPerimeter=0;startArrow=ERzeroToOne;startFill=0;endArrow=ERzeroToMany;endFill=0;" edge="1" parent="1" source="EeHq86OZld0XPDPcD5km-1" target="EeHq86OZld0XPDPcD5km-4">
          <mxGeometry relative="1" as="geometry" />
        </mxCell>
        <mxCell id="EeHq86OZld0XPDPcD5km-64" value="создает" style="shape=rhombus;double=1;perimeter=rhombusPerimeter;whiteSpace=wrap;html=1;align=center;fillColor=#ffe6cc;strokeColor=#d79b00;" vertex="1" parent="1">
          <mxGeometry x="830" y="330" width="120" height="60" as="geometry" />
        </mxCell>
        <mxCell id="EeHq86OZld0XPDPcD5km-87" style="edgeStyle=orthogonalEdgeStyle;rounded=0;orthogonalLoop=1;jettySize=auto;html=1;" edge="1" parent="1" source="EeHq86OZld0XPDPcD5km-80" target="EeHq86OZld0XPDPcD5km-61">
          <mxGeometry relative="1" as="geometry" />
        </mxCell>
        <mxCell id="EeHq86OZld0XPDPcD5km-80" value="Бронь" style="whiteSpace=wrap;html=1;align=center;fillColor=#d5e8d4;strokeColor=#82b366;" vertex="1" parent="1">
          <mxGeometry x="660" y="320" width="140" height="80" as="geometry" />
        </mxCell>
        <mxCell id="EeHq86OZld0XPDPcD5km-81" style="edgeStyle=orthogonalEdgeStyle;rounded=0;orthogonalLoop=1;jettySize=auto;html=1;entryX=0.982;entryY=0.512;entryDx=0;entryDy=0;entryPerimeter=0;endArrow=ERzeroToMany;endFill=0;startArrow=ERzeroToMany;startFill=0;" edge="1" parent="1" source="EeHq86OZld0XPDPcD5km-80" target="EeHq86OZld0XPDPcD5km-2">
          <mxGeometry relative="1" as="geometry" />
        </mxCell>
        <mxCell id="EeHq86OZld0XPDPcD5km-66" value="включает" style="shape=rhombus;double=1;perimeter=rhombusPerimeter;whiteSpace=wrap;html=1;align=center;fillColor=#ffe6cc;strokeColor=#d79b00;" vertex="1" parent="1">
          <mxGeometry x="520" y="330" width="120" height="60" as="geometry" />
        </mxCell>
        <mxCell id="EeHq86OZld0XPDPcD5km-65" value="подтверждает" style="shape=rhombus;double=1;perimeter=rhombusPerimeter;whiteSpace=wrap;html=1;align=center;fillColor=#ffe6cc;strokeColor=#d79b00;" vertex="1" parent="1">
          <mxGeometry x="665" y="430" width="130" height="60" as="geometry" />
        </mxCell>
        <mxCell id="EeHq86OZld0XPDPcD5km-71" value="подтверждает" style="shape=rhombus;double=1;perimeter=rhombusPerimeter;whiteSpace=wrap;html=1;align=center;fillColor=#ffe6cc;strokeColor=#d79b00;" vertex="1" parent="1">
          <mxGeometry x="360" y="530" width="140" height="60" as="geometry" />
        </mxCell>
        <mxCell id="EeHq86OZld0XPDPcD5km-70" value="включает" style="shape=rhombus;double=1;perimeter=rhombusPerimeter;whiteSpace=wrap;html=1;align=center;fillColor=#ffe6cc;strokeColor=#d79b00;" vertex="1" parent="1">
          <mxGeometry x="70" y="430" width="120" height="60" as="geometry" />
        </mxCell>
      </root>
    </mxGraphModel>
  </diagram>
</mxfile>
